<svg width="80" height="81" viewBox="0 0 80 81" fill="none" xmlns="http://www.w3.org/2000/svg">
<path fill-rule="evenodd" clip-rule="evenodd" d="M8.62003 6.11084L7.4912 4.86523L5 7.12289L6.12883 8.36849L28.2457 32.7733L29.3745 34.0189L31.8658 31.7613L30.7369 30.5157L8.62003 6.11084ZM47.4605 32.8901L71.835 5.99406L74.3262 8.25171L49.9517 35.1478L47.4605 32.8901ZM47.8656 49.148L72.2401 76.0441L74.7313 73.7864L50.3568 46.8903L47.8656 49.148ZM31.0859 46.8903L29.957 48.1359L7.84013 72.5408L6.71131 73.7864L9.20251 76.044L10.3313 74.7984L32.4482 50.3936L33.5771 49.148L31.0859 46.8903Z" fill="#CC0000"/>
<path d="M7.4912 4.86523L9.98241 2.60758L7.72475 0.116376L5.23355 2.37403L7.4912 4.86523ZM8.62003 6.11084L6.12883 8.36849L6.12883 8.36849L8.62003 6.11084ZM5 7.12289L2.74235 4.63169L0.251144 6.88934L2.5088 9.38054L5 7.12289ZM6.12883 8.36849L3.63762 10.6261L6.12883 8.36849ZM28.2457 32.7733L30.7369 30.5157L28.2457 32.7733ZM29.3745 34.0189L26.8833 36.2766L29.141 38.7678L31.6322 36.5101L29.3745 34.0189ZM31.8658 31.7613L34.1234 34.2525L36.6146 31.9948L34.357 29.5036L31.8658 31.7613ZM30.7369 30.5157L33.2281 28.258L30.7369 30.5157ZM71.835 5.99406L74.0927 3.50286L71.6015 1.24521L69.3438 3.73641L71.835 5.99406ZM47.4605 32.8901L44.9693 30.6325L42.7116 33.1237L45.2028 35.3813L47.4605 32.8901ZM74.3262 8.25171L76.8175 10.5094L79.0751 8.01816L76.5839 5.76051L74.3262 8.25171ZM49.9517 35.1478L47.694 37.639L50.1852 39.8966L52.4429 37.4054L49.9517 35.1478ZM72.2401 76.0441L69.7489 78.3017L72.0066 80.7929L74.4978 78.5353L72.2401 76.0441ZM47.8656 49.148L45.6079 46.6568L43.1167 48.9144L45.3744 51.4056L47.8656 49.148ZM74.7313 73.7864L76.989 76.2776L79.4802 74.02L77.2225 71.5287L74.7313 73.7864ZM50.3568 46.8903L52.848 44.6327L50.5903 42.1415L48.0991 44.3991L50.3568 46.8903ZM29.957 48.1359L32.4482 50.3936L29.957 48.1359ZM31.0859 46.8903L33.3435 44.3991L30.8523 42.1415L28.5947 44.6327L31.0859 46.8903ZM7.84013 72.5408L5.34893 70.2831H5.34893L7.84013 72.5408ZM6.71131 73.7864L4.2201 71.5287L1.96245 74.0199L4.45366 76.2776L6.71131 73.7864ZM9.20251 76.044L6.94486 78.5352L9.43607 80.7929L11.6937 78.3017L9.20251 76.044ZM10.3313 74.7984L7.84013 72.5408H7.84013L10.3313 74.7984ZM32.4482 50.3936L34.9394 52.6512L32.4482 50.3936ZM33.5771 49.148L36.0683 51.4056L38.3259 48.9144L35.8347 46.6568L33.5771 49.148ZM5 7.12289L6.12883 8.36849L11.1112 3.85319L9.98241 2.60758L5 7.12289ZM7.25765 9.61409L9.74886 7.35644L5.23355 2.37403L2.74235 4.63169L7.25765 9.61409ZM8.62003 6.11084L7.4912 4.86524L2.5088 9.38054L3.63762 10.6261L8.62003 6.11084ZM30.7369 30.5157L8.62003 6.11084L3.63762 10.6261L25.7545 35.031L30.7369 30.5157ZM31.8658 31.7613L30.7369 30.5157L25.7545 35.031L26.8833 36.2766L31.8658 31.7613ZM29.6081 29.2701L27.1169 31.5277L31.6322 36.5101L34.1234 34.2525L29.6081 29.2701ZM28.2457 32.7733L29.3745 34.0189L34.357 29.5036L33.2281 28.258L28.2457 32.7733ZM6.12883 8.36849L28.2457 32.7733L33.2281 28.258L11.1112 3.85318L6.12883 8.36849ZM69.3438 3.73641L44.9693 30.6325L49.9517 35.1478L74.3262 8.25172L69.3438 3.73641ZM76.5839 5.76051L74.0927 3.50286L69.5774 8.48527L72.0686 10.7429L76.5839 5.76051ZM52.4429 37.4054L76.8175 10.5094L71.835 5.99406L47.4605 32.8901L52.4429 37.4054ZM45.2028 35.3813L47.694 37.639L52.2093 32.6566L49.7181 30.3989L45.2028 35.3813ZM74.7313 73.7864L50.3568 46.8903L45.3744 51.4056L69.7489 78.3017L74.7313 73.7864ZM72.4737 71.2952L69.9825 73.5528L74.4978 78.5353L76.989 76.2776L72.4737 71.2952ZM47.8656 49.148L72.2401 76.0441L77.2225 71.5287L52.848 44.6327L47.8656 49.148ZM50.1232 51.6392L52.6144 49.3815L48.0991 44.3991L45.6079 46.6568L50.1232 51.6392ZM32.4482 50.3936L33.5771 49.148L28.5947 44.6327L27.4658 45.8783L32.4482 50.3936ZM10.3313 74.7984L32.4482 50.3936L27.4658 45.8783L5.34893 70.2831L10.3313 74.7984ZM9.20251 76.044L10.3313 74.7984L5.34893 70.2831L4.2201 71.5287L9.20251 76.044ZM11.4602 73.5528L8.96896 71.2952L4.45366 76.2776L6.94486 78.5352L11.4602 73.5528ZM7.84013 72.5408L6.7113 73.7864L11.6937 78.3017L12.8225 77.0561L7.84013 72.5408ZM29.957 48.1359L7.84013 72.5408L12.8225 77.0561L34.9394 52.6512L29.957 48.1359ZM31.0859 46.8903L29.957 48.1359L34.9394 52.6512L36.0683 51.4056L31.0859 46.8903ZM28.8282 49.3815L31.3194 51.6392L35.8347 46.6568L33.3435 44.3991L28.8282 49.3815Z" fill="#960404"/>
</svg>
