<svg width="38" height="38" viewBox="0 0 38 38" fill="none" xmlns="http://www.w3.org/2000/svg">
<path d="M15.4847 0.673096H15.4896V0.675245C19.7256 0.676472 23.5612 2.39462 26.3369 5.17092C29.108 7.94322 30.8246 11.7755 30.8274 16.0081H30.8295V16.0182V16.0305H30.8274C30.8258 17.7364 30.5459 19.3781 30.0311 20.909C29.9448 21.1659 29.8546 21.4127 29.7618 21.6485V21.6506C29.318 22.7742 28.7442 23.8363 28.059 24.8147L36.9865 32.8387L36.9921 32.8436L37.0403 32.8884L37.0436 32.8918C37.5477 33.3716 37.8221 34.0141 37.8568 34.6661C37.8906 35.3108 37.6901 35.9702 37.2493 36.4991L37.2459 36.504L37.1922 36.5663L37.1815 36.5771L37.1367 36.6262L37.1317 36.6326C36.6513 37.1367 36.01 37.4105 35.3574 37.4449C34.7137 37.479 34.0537 37.2791 33.5245 36.8377L33.5198 36.8343L33.4572 36.7806L33.4483 36.7732L24.3173 28.5665C24.0472 28.7568 23.7715 28.9377 23.4925 29.1083C23.114 29.3401 22.722 29.5584 22.322 29.7576C20.2655 30.7835 17.9417 31.3606 15.485 31.3606V31.3628H15.4801V31.3606C11.2441 31.3594 7.40781 29.6412 4.63213 26.8649C1.86013 24.0926 0.144438 20.2597 0.141675 16.0284H0.139526V16.0182V16.0133H0.141675C0.142903 11.7774 1.86105 7.94107 4.63735 5.16539C7.40965 2.39462 11.2419 0.678007 15.4745 0.675245V0.673096H15.4847ZM15.4896 4.1143V4.11645H15.4847H15.4745V4.1143C12.1942 4.11645 9.22081 5.44965 7.06829 7.60125C4.91608 9.75285 3.58165 12.7293 3.58073 16.0136H3.58288V16.0185V16.0287H3.58073C3.58288 19.309 4.91516 22.2809 7.06768 24.434C9.21928 26.5865 12.1957 27.9209 15.4798 27.9216V27.9194H15.4847H15.4948V27.9216C18.7752 27.9194 21.7473 26.5868 23.9004 24.4346C26.0526 22.283 27.3871 19.3075 27.3877 16.0235H27.3858V16.0185V16.0084H27.3877C27.3858 12.7281 26.0523 9.75469 23.901 7.60217C21.7494 5.44965 18.7739 4.11522 15.4896 4.1143Z" fill="#393939"/>
</svg>
